<svg xmlns="http://www.w3.org/2000/svg" viewBox="0 0 243.59 50.89"><defs><style>.cls-1{font-size:39.69px;font-family:ArialRoundedMTBold, Arial Rounded MT Bold;letter-spacing:-0.01em;}.cls-1,.cls-3{fill:#fff;}.cls-2{letter-spacing:0em;}</style></defs><g id="Layer_2" data-name="Layer 2"><g id="Layer_1-2" data-name="Layer 1"><text class="cls-1" transform="translate(84.46 42.52)">e<tspan class="cls-2" x="23.06" y="0">bsuper</tspan></text><path class="cls-3" d="M37.21,21.58l4.13-7.13C42.9,11.74,44.4,9,46,6.34c3-4.92,9.17-5.35,12.8-.87,3.26,4,5.34,8.73,7.54,13.36.28.59.58,1.16,1,2,.37-.55.65-.92.89-1.33,2.52-4.36,5-8.74,7.57-13.08a7.15,7.15,0,0,1,7.75-3.49c3.5.79,6.07,3.34,6.28,6.64a7.8,7.8,0,0,1-.85,4q-7.87,14.34-16,28.57A7.38,7.38,0,0,1,61,43a57.79,57.79,0,0,1-4.48-7.87c-1.42-2.66-2.74-5.36-4.25-8.33-1.15,2.12-2.11,4-3.18,5.85-2,3.41-4,6.82-6.1,10.17-2.45,3.93-9.68,4.11-12.29-.82C27,35,23,28.17,19,21.32a4,4,0,0,0-1.8-1.53,4,4,0,0,1-2.66-4.4A3.85,3.85,0,0,1,22,14.72a3.65,3.65,0,0,1,.07,2,3.59,3.59,0,0,0,1.09,4,3.38,3.38,0,0,0,4,.12c2.09-1.21,1.95-4.2-.27-5.67a3.12,3.12,0,0,1-1.08-4.64,3.49,3.49,0,0,1,4-1.63,3.6,3.6,0,0,1,2.78,3.15C33.1,15.65,35.74,18.09,37.21,21.58Zm-3.55,2.77a3.24,3.24,0,1,0,3.22,3.34A3.25,3.25,0,0,0,33.66,24.35ZM24.39,25a1.71,1.71,0,1,0,3.42,0,1.57,1.57,0,0,0-1.72-1.61A1.61,1.61,0,0,0,24.39,25Z"/><path class="cls-3" d="M11.53,12.05A3.16,3.16,0,0,1,8.37,9a3.17,3.17,0,0,1,3-3.1,3.07,3.07,0,0,1,3.18,3A3,3,0,0,1,11.53,12.05Z"/><path class="cls-3" d="M22,4.3A2.77,2.77,0,0,1,19.25,7a2.7,2.7,0,0,1-2.66-2.67,2.65,2.65,0,0,1,2.69-2.63A2.72,2.72,0,0,1,22,4.3Z"/><path class="cls-3" d="M23.61,9.53a2.23,2.23,0,0,1-2.11,2.18,2.27,2.27,0,0,1-2.23-2.2,2.24,2.24,0,0,1,2.26-2.18A2.2,2.2,0,0,1,23.61,9.53Z"/><path class="cls-3" d="M14.5,2.08a2.09,2.09,0,1,1-4.18,0,2.13,2.13,0,0,1,2-2A2.09,2.09,0,0,1,14.5,2.08Z"/><path class="cls-3" d="M8.08,2.43A1.81,1.81,0,0,1,6.15,4.19,1.68,1.68,0,0,1,4.46,2.35,1.73,1.73,0,0,1,6.23.57,1.84,1.84,0,0,1,8.08,2.43Z"/><path class="cls-3" d="M1.82,4.75A1.74,1.74,0,0,1,3.5,6.59,1.72,1.72,0,0,1,1.76,8.24,1.81,1.81,0,0,1,0,6.45,1.76,1.76,0,0,1,1.82,4.75Z"/></g></g></svg>